<?xml version="1.0" standalone="no"?>
<!DOCTYPE svg PUBLIC "-//W3C//DTD SVG 20010904//EN"
 "http://www.w3.org/TR/2001/REC-SVG-20010904/DTD/svg10.dtd">
<svg version="1.0" xmlns="http://www.w3.org/2000/svg"
 width="706.000000pt" height="800.000000pt" viewBox="0 0 706.000000 800.000000"
 preserveAspectRatio="xMidYMid meet">

<g transform="translate(0.000000,800.000000) scale(0.100000,-0.100000)"
fill="#000000" stroke="none">
<path d="M1605 6506 c-201 -40 -363 -145 -495 -321 -43 -58 -84 -134 -76 -142
3 -3 37 24 75 59 76 71 180 128 276 154 82 22 283 29 386 15 279 -40 609 -175
939 -384 136 -86 167 -100 236 -105 53 -4 65 -1 83 17 37 37 28 79 -31 148
-213 248 -606 473 -950 544 -132 27 -345 34 -443 15z"/>
<path d="M5065 6510 c-376 -54 -763 -253 -1023 -525 -80 -83 -92 -100 -92
-130 0 -103 138 -102 296 3 284 189 639 347 893 398 120 24 331 30 421 11 150
-31 261 -89 359 -186 28 -28 54 -51 56 -51 12 0 -51 110 -101 177 -96 128
-246 232 -409 283 -79 24 -295 35 -400 20z"/>
<path d="M1935 5500 c-110 -10 -204 -33 -267 -67 -47 -26 -119 -96 -273 -267
-98 -110 -151 -146 -215 -146 -76 0 -155 69 -234 204 -63 107 -59 85 11 -62
26 -56 61 -110 89 -139 25 -26 40 -49 34 -51 -29 -10 -159 -105 -195 -142
l-40 -42 55 37 c30 21 75 47 100 60 53 27 157 52 168 40 4 -4 2 -10 -5 -12 -6
-2 -49 -27 -95 -55 -102 -61 -202 -142 -248 -200 l-35 -43 55 45 c89 74 124
98 207 139 109 54 184 75 274 75 68 0 84 -5 175 -46 164 -77 266 -102 469
-118 194 -15 463 15 629 72 107 36 216 99 279 162 l59 58 -4 57 c-2 31 -13 74
-23 96 -62 129 -287 258 -545 313 -85 18 -134 25 -290 36 -25 2 -85 0 -135 -4z
m393 -109 c174 -45 312 -112 411 -198 66 -58 65 -73 -1 -30 -61 38 -187 99
-261 127 -217 80 -483 61 -714 -49 -142 -68 -232 -147 -218 -191 13 -41 157
-95 335 -125 129 -23 454 -22 603 0 92 14 204 41 282 69 33 12 -46 -53 -91
-75 -23 -10 -86 -31 -140 -46 -88 -23 -123 -26 -319 -30 -190 -4 -241 -2 -374
17 -85 12 -182 30 -217 41 -73 23 -157 76 -162 103 -6 31 74 177 129 234 136
142 314 199 566 180 50 -3 128 -16 171 -27z"/>
<path d="M4830 5470 c-178 -22 -376 -83 -507 -156 -187 -104 -273 -269 -192
-370 85 -107 237 -181 485 -236 139 -30 507 -33 629 -4 116 27 209 59 296 100
41 20 98 39 126 43 145 17 351 -67 518 -211 52 -44 56 -47 36 -18 -36 51 -158
150 -266 217 -79 48 -93 61 -74 63 46 7 181 -48 255 -105 19 -14 34 -23 34
-20 0 14 -92 92 -157 133 l-72 46 39 41 c38 39 120 185 134 237 6 23 6 23 -5
5 -124 -210 -216 -276 -322 -232 -47 20 -87 57 -200 186 -176 200 -226 236
-365 267 -84 18 -294 26 -392 14z m310 -91 c124 -26 265 -114 334 -208 45 -61
99 -174 94 -198 -5 -25 -100 -80 -178 -103 -218 -65 -688 -78 -891 -26 -94 25
-166 56 -213 92 -57 44 -60 61 -4 33 103 -53 264 -79 523 -86 217 -6 356 7
504 47 82 23 168 65 184 91 23 37 -102 144 -237 204 -216 95 -477 112 -681 43
-81 -27 -249 -112 -309 -156 -64 -47 -48 -14 27 54 108 98 315 188 504 219 97
16 254 13 343 -6z"/>
<path d="M1330 3433 c0 -6 67 -131 148 -279 82 -148 170 -308 196 -356 91
-169 183 -242 363 -287 77 -20 108 -21 572 -21 l491 0 44 40 c42 39 62 64 240
303 81 108 91 117 121 117 18 0 44 -10 60 -22 32 -25 243 -286 305 -377 l41
-61 527 0 c574 0 570 0 652 58 73 53 208 219 304 373 22 35 102 160 178 277
76 118 138 217 138 221 0 5 -19 5 -42 0 -24 -4 -81 -8 -128 -9 l-85 0 -224
-280 c-123 -153 -235 -289 -248 -302 -24 -23 -28 -23 -251 -22 -254 1 -455 25
-528 62 -50 25 -148 129 -238 250 -38 51 -72 92 -77 92 -4 0 -32 -9 -61 -21
-205 -80 -466 -82 -644 -4 l-52 23 -61 -77 c-33 -43 -109 -125 -168 -182 -98
-96 -114 -107 -169 -122 -93 -26 -296 -38 -514 -31 -214 7 -244 14 -284 68
-13 17 -90 149 -171 292 l-148 261 -126 6 c-69 2 -134 8 -143 12 -10 4 -18 3
-18 -2z"/>
<path d="M2824 3415 c-21 -54 69 -121 179 -132 67 -7 78 6 52 60 -19 41 -94
78 -172 85 -44 4 -54 1 -59 -13z"/>
<path d="M4097 3399 c-20 -5 -59 -20 -86 -34 -38 -19 -52 -32 -61 -60 -16 -48
-7 -58 49 -50 83 11 139 35 171 71 25 29 28 39 20 54 -6 11 -15 20 -20 20 -4
0 -14 2 -22 4 -7 2 -30 0 -51 -5z"/>
<path d="M2815 2434 c-27 -28 1 -42 110 -58 251 -37 835 -45 1080 -16 118 14
235 41 235 54 0 35 -12 36 -716 36 -629 0 -694 -2 -709 -16z"/>
<path d="M3207 1868 c87 -95 133 -185 133 -258 0 -21 -15 -96 -32 -167 -32
-125 -33 -133 -32 -338 0 -207 1 -214 47 -456 55 -292 73 -346 138 -414 l48
-50 27 21 c45 33 83 86 103 144 22 63 95 452 112 598 18 152 6 342 -30 490
-17 68 -31 147 -31 175 0 65 30 132 95 212 26 33 52 66 58 73 7 9 -61 12 -333
12 l-343 0 40 -42z"/>
</g>
</svg>
